<svg width="355" height="101" viewBox="0 0 355 101" fill="none" xmlns="http://www.w3.org/2000/svg">
<path d="M195.36 45V10.68H203.04V38.76H228.144V45H195.36ZM232.234 45V20.28H239.194V45H232.234ZM232.186 16.2V10.776H239.242V16.2H232.186ZM244.468 45V20.28H266.02C268.836 20.28 270.884 20.984 272.164 22.392C273.476 23.768 274.132 25.592 274.132 27.864V45H267.172V28.68C267.172 26.76 266.212 25.8 264.292 25.8H251.428V45H244.468ZM291.828 45.24C287.54 45.24 284.196 44.184 281.796 42.072C279.396 39.928 278.196 36.792 278.196 32.664C278.196 28.504 279.396 25.368 281.796 23.256C284.196 21.112 287.54 20.04 291.828 20.04H303.828C306.644 20.04 308.788 20.712 310.26 22.056C311.764 23.368 312.516 25.256 312.516 27.72C312.516 32.744 309.62 35.256 303.828 35.256H285.684C286.356 38.232 288.404 39.72 291.828 39.72H311.268V45.24H291.828ZM291.828 25.56C288.532 25.56 286.5 26.952 285.732 29.736H303.492C304.132 29.736 304.628 29.544 304.98 29.16C305.364 28.776 305.556 28.248 305.556 27.576C305.556 26.232 304.868 25.56 303.492 25.56H291.828Z" fill="#00ABE1"/>
<path d="M3.36 45V10.68H11.04V38.76H36.144V45H3.36ZM46.8098 45C44.2178 45 42.2338 44.344 40.8578 43.032C39.4818 41.72 38.7938 39.848 38.7938 37.416C38.7938 35.016 39.4818 33.16 40.8578 31.848C42.2338 30.536 44.2178 29.88 46.8098 29.88H65.2418V28.728C65.2418 26.776 64.2818 25.8 62.3618 25.8H42.0098V20.28H64.1858C67.0978 20.28 69.1618 20.952 70.3778 22.296C71.5938 23.608 72.2018 25.464 72.2018 27.864V45H46.8098ZM48.0578 39.48H65.2418V35.4H48.0578C47.4498 35.4 46.9698 35.592 46.6178 35.976C46.2978 36.328 46.1378 36.808 46.1378 37.416C46.1378 38.024 46.2978 38.52 46.6178 38.904C46.9698 39.288 47.4498 39.48 48.0578 39.48ZM76.6834 45.24V39.72H100.203C101.547 39.72 102.219 38.968 102.219 37.464C102.219 35.992 101.547 35.256 100.203 35.256H84.9874C82.1394 35.256 79.9794 34.616 78.5074 33.336C77.0354 32.024 76.2994 30.152 76.2994 27.72C76.2994 25.256 77.0354 23.368 78.5074 22.056C80.0114 20.712 82.1714 20.04 84.9874 20.04H106.875V25.56H85.3234C83.9474 25.56 83.2594 26.232 83.2594 27.576C83.2594 28.248 83.4514 28.776 83.8354 29.16C84.2194 29.544 84.7154 29.736 85.3234 29.736H101.451C103.947 29.736 105.851 30.392 107.163 31.704C108.507 32.984 109.179 34.856 109.179 37.32C109.179 39.816 108.507 41.768 107.163 43.176C105.819 44.552 103.915 45.24 101.451 45.24H76.6834ZM125.937 45.24C121.649 45.24 118.305 44.184 115.905 42.072C113.505 39.928 112.305 36.792 112.305 32.664C112.305 28.504 113.505 25.368 115.905 23.256C118.305 21.112 121.649 20.04 125.937 20.04H137.937C140.753 20.04 142.897 20.712 144.369 22.056C145.873 23.368 146.625 25.256 146.625 27.72C146.625 32.744 143.729 35.256 137.937 35.256H119.793C120.465 38.232 122.513 39.72 125.937 39.72H145.377V45.24H125.937ZM125.937 25.56C122.641 25.56 120.609 26.952 119.841 29.736H137.601C138.241 29.736 138.737 29.544 139.089 29.16C139.473 28.776 139.665 28.248 139.665 27.576C139.665 26.232 138.977 25.56 137.601 25.56H125.937ZM150.953 45V20.28H169.865C172.649 20.28 174.697 20.984 176.009 22.392C177.321 23.768 177.977 25.592 177.977 27.864V33H170.921V28.728C170.921 26.808 169.961 25.848 168.041 25.848H158.009V45H150.953Z" fill="#313131"/>
<path d="M22.714 83.456C21.5993 83.456 20.6113 83.3293 19.75 83.076C18.914 82.8227 18.2427 82.3033 17.736 81.518C17.2547 80.7073 17.014 79.4913 17.014 77.87V65.216C17.014 63.7973 17.2547 62.7333 17.736 62.024C18.2427 61.3147 18.9267 60.846 19.788 60.618C20.6747 60.3647 21.6627 60.238 22.752 60.238C23.8667 60.238 24.842 60.3647 25.678 60.618C26.514 60.8713 27.1727 61.3527 27.654 62.062C28.1353 62.7713 28.376 63.8227 28.376 65.216V69.168H25.982V65.178C25.982 64.19 25.8427 63.4553 25.564 62.974C25.2853 62.4673 24.8927 62.138 24.386 61.986C23.9047 61.834 23.3473 61.758 22.714 61.758C22.0807 61.758 21.5107 61.834 21.004 61.986C20.5227 62.138 20.1427 62.4673 19.864 62.974C19.6107 63.4553 19.484 64.19 19.484 65.178V78.516C19.484 79.5293 19.6107 80.2893 19.864 80.796C20.1427 81.2773 20.5227 81.594 21.004 81.746C21.5107 81.898 22.0807 81.974 22.714 81.974C23.3727 81.974 23.9427 81.898 24.424 81.746C24.9053 81.594 25.2853 81.2773 25.564 80.796C25.8427 80.2893 25.982 79.5293 25.982 78.516V75.134H28.376V77.832C28.376 79.4787 28.1353 80.7073 27.654 81.518C27.1727 82.3033 26.514 82.8227 25.678 83.076C24.842 83.3293 23.854 83.456 22.714 83.456ZM36.9037 83.266C35.7384 83.266 34.7631 83.114 33.9777 82.81C33.2177 82.4807 32.6477 81.9107 32.2677 81.1C31.9131 80.2893 31.7357 79.1747 31.7357 77.756V68.978C31.7357 67.154 32.1284 65.8493 32.9137 65.064C33.7244 64.2787 35.0544 63.886 36.9037 63.886C38.7531 63.886 40.0704 64.266 40.8557 65.026C41.6664 65.786 42.0717 67.1033 42.0717 68.978V77.756C42.0717 79.1747 41.8944 80.2893 41.5397 81.1C41.1851 81.8853 40.6277 82.4427 39.8677 82.772C39.1077 83.1013 38.1197 83.266 36.9037 83.266ZM36.9037 81.784C37.9171 81.784 38.6391 81.5307 39.0697 81.024C39.5004 80.5173 39.7157 79.5927 39.7157 78.25V68.864C39.7157 67.6227 39.5131 66.736 39.1077 66.204C38.7024 65.6467 37.9677 65.368 36.9037 65.368C35.9157 65.368 35.1937 65.634 34.7377 66.166C34.3071 66.6727 34.0917 67.572 34.0917 68.864V78.25C34.0917 79.5673 34.3071 80.492 34.7377 81.024C35.1937 81.5307 35.9157 81.784 36.9037 81.784ZM45.5882 83V64.19H47.5642L47.8302 66.204C48.1089 65.4947 48.5649 64.988 49.1982 64.684C49.8316 64.38 50.4649 64.19 51.0982 64.114C51.8076 63.962 52.4916 63.9493 53.1502 64.076V65.938C53.0489 65.9127 52.8716 65.8873 52.6182 65.862C52.3649 65.8367 52.0862 65.824 51.7822 65.824C51.5036 65.824 51.2376 65.8747 50.9842 65.976C50.1229 66.0773 49.4009 66.394 48.8182 66.926C48.2356 67.4327 47.9442 68.1293 47.9442 69.016V83H45.5882ZM59.2655 83.038C58.7082 83.038 58.2015 82.9747 57.7455 82.848C57.2895 82.7213 56.8969 82.5187 56.5675 82.24C56.2382 81.936 55.9849 81.556 55.8075 81.1C55.6302 80.6187 55.5415 80.0233 55.5415 79.314V65.672H53.8695V64.456L55.6935 64.19L56.1115 60.656H57.8975V64.19H61.9635V65.672H57.8975V78.896C57.8975 79.6053 58.0242 80.2007 58.2775 80.682C58.5309 81.1633 59.0882 81.404 59.9495 81.404C60.3042 81.404 60.6842 81.3913 61.0895 81.366C61.4949 81.3153 61.7862 81.29 61.9635 81.29V82.81C61.7609 82.81 61.4062 82.848 60.8995 82.924C60.3929 83 59.8482 83.038 59.2655 83.038ZM69.2296 83.342C67.9629 83.342 66.9369 83.2027 66.1516 82.924C65.3662 82.62 64.7962 82.0753 64.4416 81.29C64.0869 80.5047 63.9096 79.3647 63.9096 77.87V68.484C63.9096 66.7107 64.3022 65.4947 65.0876 64.836C65.8982 64.1773 67.2282 63.848 69.0776 63.848C70.8762 63.848 72.1682 64.1773 72.9536 64.836C73.7642 65.4947 74.1696 66.7107 74.1696 68.484V73.348H66.2656V78.668C66.2656 79.884 66.4556 80.7327 66.8356 81.214C67.2156 81.67 67.9882 81.898 69.1536 81.898C70.2176 81.898 70.9269 81.67 71.2816 81.214C71.6362 80.758 71.8136 79.9093 71.8136 78.668V76.236H74.1696V77.832C74.1696 79.3013 73.9922 80.4413 73.6376 81.252C73.2829 82.0373 72.7382 82.582 72.0036 82.886C71.2942 83.19 70.3696 83.342 69.2296 83.342ZM66.2656 72.132H71.8136V68.408C71.8136 67.344 71.6362 66.5713 71.2816 66.09C70.9269 65.6087 70.1922 65.368 69.0776 65.368C67.9629 65.368 67.2156 65.6087 66.8356 66.09C66.4556 66.5713 66.2656 67.344 66.2656 68.408V72.132ZM89.4171 83.342C88.1504 83.342 87.1244 83.2027 86.3391 82.924C85.5537 82.62 84.9837 82.0753 84.6291 81.29C84.2744 80.5047 84.0971 79.3647 84.0971 77.87V68.484C84.0971 66.7107 84.4897 65.4947 85.2751 64.836C86.0857 64.1773 87.4157 63.848 89.2651 63.848C91.0637 63.848 92.3557 64.1773 93.1411 64.836C93.9517 65.4947 94.3571 66.7107 94.3571 68.484V73.348H86.4531V78.668C86.4531 79.884 86.6431 80.7327 87.0231 81.214C87.4031 81.67 88.1757 81.898 89.3411 81.898C90.4051 81.898 91.1144 81.67 91.4691 81.214C91.8237 80.758 92.0011 79.9093 92.0011 78.668V76.236H94.3571V77.832C94.3571 79.3013 94.1797 80.4413 93.8251 81.252C93.4704 82.0373 92.9257 82.582 92.1911 82.886C91.4817 83.19 90.5571 83.342 89.4171 83.342ZM86.4531 72.132H92.0011V68.408C92.0011 67.344 91.8237 66.5713 91.4691 66.09C91.1144 65.6087 90.3797 65.368 89.2651 65.368C88.1504 65.368 87.4031 65.6087 87.0231 66.09C86.6431 66.5713 86.4531 67.344 86.4531 68.408V72.132ZM109.073 87.446C108.794 87.446 108.465 87.4333 108.085 87.408C107.705 87.3827 107.325 87.3573 106.945 87.332C106.59 87.3067 106.273 87.2687 105.995 87.218C105.741 87.1927 105.577 87.1673 105.501 87.142V85.774C105.805 85.7993 106.235 85.85 106.793 85.926C107.375 86.002 107.895 86.04 108.351 86.04C108.705 86.04 109.098 86.0147 109.529 85.964C109.959 85.9133 110.377 85.774 110.783 85.546C111.213 85.318 111.555 84.938 111.809 84.406C112.087 83.874 112.227 83.1393 112.227 82.202V79.618C112.075 80.0993 111.834 80.53 111.505 80.91C111.201 81.29 110.795 81.594 110.289 81.822C109.782 82.0247 109.161 82.126 108.427 82.126C107.945 82.126 107.451 82.0753 106.945 81.974C106.463 81.8727 106.02 81.67 105.615 81.366C105.209 81.0367 104.88 80.5427 104.627 79.884C104.399 79.2 104.285 78.288 104.285 77.148V68.522C104.285 66.85 104.614 65.6467 105.273 64.912C105.931 64.1773 106.995 63.81 108.465 63.81C109.123 63.81 109.719 63.8987 110.251 64.076C110.808 64.2533 111.277 64.5193 111.657 64.874C112.037 65.2287 112.328 65.672 112.531 66.204H112.113L112.493 64.19H114.545V81.404C114.545 82.392 114.418 83.2533 114.165 83.988C113.937 84.748 113.595 85.3813 113.139 85.888C112.683 86.42 112.113 86.8127 111.429 87.066C110.745 87.3193 109.959 87.446 109.073 87.446ZM109.263 80.606C110.099 80.606 110.719 80.4033 111.125 79.998C111.555 79.5673 111.834 79.0353 111.961 78.402C112.113 77.7433 112.189 77.0847 112.189 76.426V67.23C112.113 67.002 111.961 66.7487 111.733 66.47C111.53 66.1913 111.226 65.9507 110.821 65.748C110.441 65.5453 109.921 65.444 109.263 65.444C108.325 65.444 107.654 65.672 107.249 66.128C106.843 66.584 106.641 67.42 106.641 68.636V77.718C106.641 78.3767 106.729 78.9087 106.907 79.314C107.084 79.7193 107.312 80.0107 107.591 80.188C107.895 80.3653 108.199 80.4793 108.503 80.53C108.807 80.5807 109.06 80.606 109.263 80.606ZM118.323 83V64.19H120.299L120.565 66.204C120.843 65.4947 121.299 64.988 121.933 64.684C122.566 64.38 123.199 64.19 123.833 64.114C124.542 63.962 125.226 63.9493 125.885 64.076V65.938C125.783 65.9127 125.606 65.8873 125.353 65.862C125.099 65.8367 124.821 65.824 124.517 65.824C124.238 65.824 123.972 65.8747 123.719 65.976C122.857 66.0773 122.135 66.394 121.553 66.926C120.97 67.4327 120.679 68.1293 120.679 69.016V83H118.323ZM131.354 83.266C130.771 83.266 130.176 83.1773 129.568 83C128.985 82.848 128.479 82.4807 128.048 81.898C127.643 81.29 127.44 80.3527 127.44 79.086V77.262C127.44 75.9953 127.82 74.982 128.58 74.222C129.365 73.4367 130.429 72.74 131.772 72.132C132.633 71.7013 133.33 71.3213 133.862 70.992C134.419 70.6627 134.837 70.2953 135.116 69.89C135.395 69.4847 135.534 68.94 135.534 68.256V67.458C135.534 66.85 135.407 66.3813 135.154 66.052C134.901 65.7227 134.559 65.4947 134.128 65.368C133.723 65.2413 133.292 65.178 132.836 65.178C131.696 65.178 130.949 65.4947 130.594 66.128C130.239 66.736 130.062 67.648 130.062 68.864V70.46H127.896V68.636C127.896 67.6987 128.023 66.8753 128.276 66.166C128.529 65.4313 129.011 64.8613 129.72 64.456C130.429 64.0253 131.468 63.81 132.836 63.81C134.28 63.81 135.357 63.9747 136.066 64.304C136.801 64.6333 137.282 65.102 137.51 65.71C137.763 66.318 137.89 67.04 137.89 67.876V83H135.572L135.534 80.644C135.23 81.5053 134.685 82.164 133.9 82.62C133.115 83.0507 132.266 83.266 131.354 83.266ZM132.228 81.67C133.368 81.67 134.191 81.2647 134.698 80.454C135.23 79.6433 135.496 78.5667 135.496 77.224V71.22C135.243 71.6253 134.825 71.9927 134.242 72.322C133.659 72.6513 133.064 72.9807 132.456 73.31C131.595 73.8167 130.923 74.3487 130.442 74.906C129.986 75.438 129.758 76.1853 129.758 77.148V78.63C129.758 79.542 129.885 80.2133 130.138 80.644C130.391 81.0747 130.708 81.3533 131.088 81.48C131.468 81.6067 131.848 81.67 132.228 81.67ZM144.516 83L140.108 64.19H142.54L146.074 80.302H145.998L149.304 64.19H151.546L147.29 83H144.516ZM157.516 83.266C156.933 83.266 156.338 83.1773 155.73 83C155.147 82.848 154.641 82.4807 154.21 81.898C153.805 81.29 153.602 80.3527 153.602 79.086V77.262C153.602 75.9953 153.982 74.982 154.742 74.222C155.527 73.4367 156.591 72.74 157.934 72.132C158.795 71.7013 159.492 71.3213 160.024 70.992C160.581 70.6627 160.999 70.2953 161.278 69.89C161.557 69.4847 161.696 68.94 161.696 68.256V67.458C161.696 66.85 161.569 66.3813 161.316 66.052C161.063 65.7227 160.721 65.4947 160.29 65.368C159.885 65.2413 159.454 65.178 158.998 65.178C157.858 65.178 157.111 65.4947 156.756 66.128C156.401 66.736 156.224 67.648 156.224 68.864V70.46H154.058V68.636C154.058 67.6987 154.185 66.8753 154.438 66.166C154.691 65.4313 155.173 64.8613 155.882 64.456C156.591 64.0253 157.63 63.81 158.998 63.81C160.442 63.81 161.519 63.9747 162.228 64.304C162.963 64.6333 163.444 65.102 163.672 65.71C163.925 66.318 164.052 67.04 164.052 67.876V83H161.734L161.696 80.644C161.392 81.5053 160.847 82.164 160.062 82.62C159.277 83.0507 158.428 83.266 157.516 83.266ZM158.39 81.67C159.53 81.67 160.353 81.2647 160.86 80.454C161.392 79.6433 161.658 78.5667 161.658 77.224V71.22C161.405 71.6253 160.987 71.9927 160.404 72.322C159.821 72.6513 159.226 72.9807 158.618 73.31C157.757 73.8167 157.085 74.3487 156.604 74.906C156.148 75.438 155.92 76.1853 155.92 77.148V78.63C155.92 79.542 156.047 80.2133 156.3 80.644C156.553 81.0747 156.87 81.3533 157.25 81.48C157.63 81.6067 158.01 81.67 158.39 81.67ZM172.578 83.342C171.337 83.342 170.324 83.2027 169.538 82.924C168.753 82.62 168.183 82.088 167.828 81.328C167.474 80.5427 167.296 79.4027 167.296 77.908V68.636C167.296 66.7867 167.689 65.5327 168.474 64.874C169.285 64.19 170.615 63.848 172.464 63.848C174.263 63.848 175.555 64.1773 176.34 64.836C177.151 65.4947 177.556 66.7107 177.556 68.484V70.954H175.2V68.408C175.2 67.3187 175.023 66.5333 174.668 66.052C174.314 65.5453 173.579 65.292 172.464 65.292C171.35 65.292 170.602 65.5453 170.222 66.052C169.842 66.5333 169.652 67.3187 169.652 68.408V78.516C169.652 79.732 169.842 80.5933 170.222 81.1C170.602 81.5813 171.375 81.822 172.54 81.822C173.604 81.822 174.314 81.5813 174.668 81.1C175.023 80.6187 175.2 79.7573 175.2 78.516V75.97H177.556V77.908C177.556 79.352 177.379 80.4667 177.024 81.252C176.67 82.0373 176.125 82.582 175.39 82.886C174.656 83.19 173.718 83.342 172.578 83.342ZM172.122 88.548C171.742 88.548 171.388 88.472 171.058 88.32C170.754 88.1933 170.501 88.0793 170.298 87.978L170.64 87.066C170.792 87.1927 171.02 87.3067 171.324 87.408C171.628 87.5093 171.869 87.56 172.046 87.56C172.553 87.56 172.92 87.446 173.148 87.218C173.402 86.99 173.528 86.7113 173.528 86.382C173.528 86.0527 173.414 85.7867 173.186 85.584C172.984 85.4067 172.705 85.318 172.35 85.318C172.198 85.318 172.034 85.356 171.856 85.432C171.679 85.508 171.527 85.5967 171.4 85.698L170.602 85.28L171.818 83H172.882L171.856 84.938L171.628 84.862C171.806 84.7607 172.008 84.672 172.236 84.596C172.464 84.5453 172.692 84.52 172.92 84.52C173.554 84.52 174.048 84.71 174.402 85.09C174.757 85.4953 174.934 85.9133 174.934 86.344C174.934 86.9773 174.694 87.4967 174.212 87.902C173.731 88.3327 173.034 88.548 172.122 88.548ZM185.638 83.266C184.473 83.266 183.497 83.114 182.712 82.81C181.952 82.4807 181.382 81.9107 181.002 81.1C180.647 80.2893 180.47 79.1747 180.47 77.756V68.978C180.47 67.154 180.863 65.8493 181.648 65.064C182.459 64.2787 183.789 63.886 185.638 63.886C187.487 63.886 188.805 64.266 189.59 65.026C190.401 65.786 190.806 67.1033 190.806 68.978V77.756C190.806 79.1747 190.629 80.2893 190.274 81.1C189.919 81.8853 189.362 82.4427 188.602 82.772C187.842 83.1013 186.854 83.266 185.638 83.266ZM185.638 81.784C186.651 81.784 187.373 81.5307 187.804 81.024C188.235 80.5173 188.45 79.5927 188.45 78.25V68.864C188.45 67.6227 188.247 66.736 187.842 66.204C187.437 65.6467 186.702 65.368 185.638 65.368C184.65 65.368 183.928 65.634 183.472 66.166C183.041 66.6727 182.826 67.572 182.826 68.864V78.25C182.826 79.5673 183.041 80.492 183.472 81.024C183.928 81.5307 184.65 81.784 185.638 81.784ZM187.272 61.948C186.917 61.948 186.613 61.8973 186.36 61.796C186.132 61.6693 185.841 61.492 185.486 61.264C185.258 61.1373 185.005 60.998 184.726 60.846C184.473 60.6687 184.194 60.58 183.89 60.58C183.586 60.58 183.333 60.694 183.13 60.922C182.927 61.1247 182.801 61.454 182.75 61.91H181.8C181.825 61.15 182.028 60.542 182.408 60.086C182.788 59.6047 183.295 59.364 183.928 59.364C184.283 59.364 184.599 59.44 184.878 59.592C185.182 59.7187 185.486 59.8833 185.79 60.086C186.069 60.238 186.322 60.3773 186.55 60.504C186.778 60.6307 187.019 60.694 187.272 60.694C187.601 60.694 187.867 60.5927 188.07 60.39C188.273 60.1873 188.412 59.8707 188.488 59.44H189.476C189.451 59.9467 189.324 60.39 189.096 60.77C188.893 61.15 188.627 61.4413 188.298 61.644C187.994 61.8467 187.652 61.948 187.272 61.948ZM199.187 83.342C197.92 83.342 196.894 83.2027 196.109 82.924C195.323 82.62 194.753 82.0753 194.399 81.29C194.044 80.5047 193.867 79.3647 193.867 77.87V68.484C193.867 66.7107 194.259 65.4947 195.045 64.836C195.855 64.1773 197.185 63.848 199.035 63.848C200.833 63.848 202.125 64.1773 202.911 64.836C203.721 65.4947 204.127 66.7107 204.127 68.484V73.348H196.223V78.668C196.223 79.884 196.413 80.7327 196.793 81.214C197.173 81.67 197.945 81.898 199.111 81.898C200.175 81.898 200.884 81.67 201.239 81.214C201.593 80.758 201.771 79.9093 201.771 78.668V76.236H204.127V77.832C204.127 79.3013 203.949 80.4413 203.595 81.252C203.24 82.0373 202.695 82.582 201.961 82.886C201.251 83.19 200.327 83.342 199.187 83.342ZM196.223 72.132H201.771V68.408C201.771 67.344 201.593 66.5713 201.239 66.09C200.884 65.6087 200.149 65.368 199.035 65.368C197.92 65.368 197.173 65.6087 196.793 66.09C196.413 66.5713 196.223 67.344 196.223 68.408V72.132ZM212.056 83.266C210.688 83.266 209.624 83.1013 208.864 82.772C208.104 82.4173 207.572 81.8727 207.268 81.138C206.964 80.378 206.812 79.3773 206.812 78.136V76.502H209.206V78.668C209.206 79.8587 209.409 80.682 209.814 81.138C210.22 81.594 210.954 81.822 212.018 81.822C212.956 81.822 213.64 81.594 214.07 81.138C214.526 80.682 214.754 79.9093 214.754 78.82V77.756C214.754 77.1733 214.666 76.6793 214.488 76.274C214.311 75.8433 213.969 75.4507 213.462 75.096C212.981 74.7413 212.297 74.3867 211.41 74.032C210.574 73.7027 209.84 73.348 209.206 72.968C208.573 72.588 208.066 72.1067 207.686 71.524C207.332 70.9413 207.154 70.194 207.154 69.282V68.142C207.154 66.7993 207.534 65.7607 208.294 65.026C209.08 64.266 210.397 63.886 212.246 63.886C213.462 63.886 214.425 64.0507 215.134 64.38C215.869 64.7093 216.401 65.2413 216.73 65.976C217.085 66.7107 217.262 67.6607 217.262 68.826V70.422H214.944V68.598C214.944 67.3313 214.729 66.47 214.298 66.014C213.868 65.5327 213.184 65.292 212.246 65.292C211.182 65.292 210.46 65.5453 210.08 66.052C209.726 66.5587 209.548 67.192 209.548 67.952V68.978C209.548 69.6873 209.7 70.27 210.004 70.726C210.334 71.182 210.79 71.562 211.372 71.866C211.955 72.17 212.652 72.4867 213.462 72.816C214.197 73.12 214.843 73.4493 215.4 73.804C215.983 74.1333 216.439 74.5893 216.768 75.172C217.098 75.7547 217.262 76.5527 217.262 77.566V78.44C217.262 79.4533 217.098 80.3273 216.768 81.062C216.464 81.7713 215.932 82.316 215.172 82.696C214.412 83.076 213.374 83.266 212.056 83.266ZM231.104 83.266C230.521 83.266 229.926 83.1773 229.318 83C228.735 82.848 228.229 82.4807 227.798 81.898C227.393 81.29 227.19 80.3527 227.19 79.086V77.262C227.19 75.9953 227.57 74.982 228.33 74.222C229.115 73.4367 230.179 72.74 231.522 72.132C232.383 71.7013 233.08 71.3213 233.612 70.992C234.169 70.6627 234.587 70.2953 234.866 69.89C235.145 69.4847 235.284 68.94 235.284 68.256V67.458C235.284 66.85 235.157 66.3813 234.904 66.052C234.651 65.7227 234.309 65.4947 233.878 65.368C233.473 65.2413 233.042 65.178 232.586 65.178C231.446 65.178 230.699 65.4947 230.344 66.128C229.989 66.736 229.812 67.648 229.812 68.864V70.46H227.646V68.636C227.646 67.6987 227.773 66.8753 228.026 66.166C228.279 65.4313 228.761 64.8613 229.47 64.456C230.179 64.0253 231.218 63.81 232.586 63.81C234.03 63.81 235.107 63.9747 235.816 64.304C236.551 64.6333 237.032 65.102 237.26 65.71C237.513 66.318 237.64 67.04 237.64 67.876V83H235.322L235.284 80.644C234.98 81.5053 234.435 82.164 233.65 82.62C232.865 83.0507 232.016 83.266 231.104 83.266ZM231.978 81.67C233.118 81.67 233.941 81.2647 234.448 80.454C234.98 79.6433 235.246 78.5667 235.246 77.224V71.22C234.993 71.6253 234.575 71.9927 233.992 72.322C233.409 72.6513 232.814 72.9807 232.206 73.31C231.345 73.8167 230.673 74.3487 230.192 74.906C229.736 75.438 229.508 76.1853 229.508 77.148V78.63C229.508 79.542 229.635 80.2133 229.888 80.644C230.141 81.0747 230.458 81.3533 230.838 81.48C231.218 81.6067 231.598 81.67 231.978 81.67ZM248.354 83V58.908H250.672V83H248.354ZM258.12 83.266C257.537 83.266 256.942 83.1773 256.334 83C255.751 82.848 255.244 82.4807 254.814 81.898C254.408 81.29 254.206 80.3527 254.206 79.086V77.262C254.206 75.9953 254.586 74.982 255.346 74.222C256.131 73.4367 257.195 72.74 258.538 72.132C259.399 71.7013 260.096 71.3213 260.628 70.992C261.185 70.6627 261.603 70.2953 261.882 69.89C262.16 69.4847 262.3 68.94 262.3 68.256V67.458C262.3 66.85 262.173 66.3813 261.92 66.052C261.666 65.7227 261.324 65.4947 260.894 65.368C260.488 65.2413 260.058 65.178 259.602 65.178C258.462 65.178 257.714 65.4947 257.36 66.128C257.005 66.736 256.828 67.648 256.828 68.864V70.46H254.662V68.636C254.662 67.6987 254.788 66.8753 255.042 66.166C255.295 65.4313 255.776 64.8613 256.486 64.456C257.195 64.0253 258.234 63.81 259.602 63.81C261.046 63.81 262.122 63.9747 262.832 64.304C263.566 64.6333 264.048 65.102 264.276 65.71C264.529 66.318 264.656 67.04 264.656 67.876V83H262.338L262.3 80.644C261.996 81.5053 261.451 82.164 260.666 82.62C259.88 83.0507 259.032 83.266 258.12 83.266ZM258.994 81.67C260.134 81.67 260.957 81.2647 261.464 80.454C261.996 79.6433 262.262 78.5667 262.262 77.224V71.22C262.008 71.6253 261.59 71.9927 261.008 72.322C260.425 72.6513 259.83 72.9807 259.222 73.31C258.36 73.8167 257.689 74.3487 257.208 74.906C256.752 75.438 256.524 76.1853 256.524 77.148V78.63C256.524 79.542 256.65 80.2133 256.904 80.644C257.157 81.0747 257.474 81.3533 257.854 81.48C258.234 81.6067 258.614 81.67 258.994 81.67ZM272.916 83.266C271.548 83.266 270.484 83.1013 269.724 82.772C268.964 82.4173 268.432 81.8727 268.128 81.138C267.824 80.378 267.672 79.3773 267.672 78.136V76.502H270.066V78.668C270.066 79.8587 270.268 80.682 270.674 81.138C271.079 81.594 271.814 81.822 272.878 81.822C273.815 81.822 274.499 81.594 274.93 81.138C275.386 80.682 275.614 79.9093 275.614 78.82V77.756C275.614 77.1733 275.525 76.6793 275.348 76.274C275.17 75.8433 274.828 75.4507 274.322 75.096C273.84 74.7413 273.156 74.3867 272.27 74.032C271.434 73.7027 270.699 73.348 270.066 72.968C269.432 72.588 268.926 72.1067 268.546 71.524C268.191 70.9413 268.014 70.194 268.014 69.282V68.142C268.014 66.7993 268.394 65.7607 269.154 65.026C269.939 64.266 271.256 63.886 273.106 63.886C274.322 63.886 275.284 64.0507 275.994 64.38C276.728 64.7093 277.26 65.2413 277.59 65.976C277.944 66.7107 278.122 67.6607 278.122 68.826V70.422H275.804V68.598C275.804 67.3313 275.588 66.47 275.158 66.014C274.727 65.5327 274.043 65.292 273.106 65.292C272.042 65.292 271.32 65.5453 270.94 66.052C270.585 66.5587 270.408 67.192 270.408 67.952V68.978C270.408 69.6873 270.56 70.27 270.864 70.726C271.193 71.182 271.649 71.562 272.232 71.866C272.814 72.17 273.511 72.4867 274.322 72.816C275.056 73.12 275.702 73.4493 276.26 73.804C276.842 74.1333 277.298 74.5893 277.628 75.172C277.957 75.7547 278.122 76.5527 278.122 77.566V78.44C278.122 79.4533 277.957 80.3273 277.628 81.062C277.324 81.7713 276.792 82.316 276.032 82.696C275.272 83.076 274.233 83.266 272.916 83.266ZM286.394 83.342C285.127 83.342 284.101 83.2027 283.316 82.924C282.53 82.62 281.96 82.0753 281.606 81.29C281.251 80.5047 281.074 79.3647 281.074 77.87V68.484C281.074 66.7107 281.466 65.4947 282.252 64.836C283.062 64.1773 284.392 63.848 286.242 63.848C288.04 63.848 289.332 64.1773 290.118 64.836C290.928 65.4947 291.334 66.7107 291.334 68.484V73.348H283.43V78.668C283.43 79.884 283.62 80.7327 284 81.214C284.38 81.67 285.152 81.898 286.318 81.898C287.382 81.898 288.091 81.67 288.446 81.214C288.8 80.758 288.978 79.9093 288.978 78.668V76.236H291.334V77.832C291.334 79.3013 291.156 80.4413 290.802 81.252C290.447 82.0373 289.902 82.582 289.168 82.886C288.458 83.19 287.534 83.342 286.394 83.342ZM283.43 72.132H288.978V68.408C288.978 67.344 288.8 66.5713 288.446 66.09C288.091 65.6087 287.356 65.368 286.242 65.368C285.127 65.368 284.38 65.6087 284 66.09C283.62 66.5713 283.43 67.344 283.43 68.408V72.132ZM294.703 83V64.19H296.679L296.945 66.204C297.224 65.4947 297.68 64.988 298.313 64.684C298.947 64.38 299.58 64.19 300.213 64.114C300.923 63.962 301.607 63.9493 302.265 64.076V65.938C302.164 65.9127 301.987 65.8873 301.733 65.862C301.48 65.8367 301.201 65.824 300.897 65.824C300.619 65.824 300.353 65.8747 300.099 65.976C299.238 66.0773 298.516 66.394 297.933 66.926C297.351 67.4327 297.059 68.1293 297.059 69.016V83H294.703Z" fill="#00ABE1"/>
<line y1="55.5" x2="338" y2="55.5" stroke="#313131"/>
<rect x="335" y="45" width="3" height="10" rx="1.5" fill="#313131"/>
<rect x="344.096" y="50" width="2.3602" height="5.85611" rx="1.1801" transform="rotate(60.4849 344.096 50)" fill="#313131"/>
<rect x="327" y="50.9082" width="2.3602" height="6.87576" rx="1.1801" transform="rotate(-53.9479 327 50.9082)" fill="#313131"/>
<rect x="345.546" y="61.1235" width="2.3602" height="6.49704" rx="1.1801" transform="rotate(124.716 345.546 61.1235)" fill="#313131"/>
<rect x="338.026" y="66.5897" width="2.3602" height="6.46397" rx="1.1801" transform="rotate(-179.877 338.026 66.5897)" fill="#313131"/>
<rect x="329.484" y="63.517" width="2.3602" height="6.46671" rx="1.1801" transform="rotate(-132.224 329.484 63.517)" fill="#313131"/>
<circle cx="336.5" cy="55.5" r="2.5" fill="#313131"/>
<rect x="336.105" y="8" width="18.4748" height="2.21697" rx="1.10848" fill="#313131"/>
<rect x="318" y="17.2374" width="36.2105" height="2.21697" rx="1.10848" fill="#313131"/>
<rect x="354.58" y="8" width="11.4543" height="2.21697" rx="1.10848" transform="rotate(90 354.58 8)" fill="#313131"/>
<rect width="18.4748" height="2.21697" rx="1.10848" transform="matrix(0.5 0.866025 0.866025 -0.5 324.281 26.4747)" fill="#313131"/>
<rect x="348.741" y="26.4747" width="18.4748" height="2.21697" rx="1.10848" transform="rotate(120 348.741 26.4747)" fill="#313131"/>
<rect x="348.299" y="18.3459" width="9.60687" height="2.21697" rx="1.10848" transform="rotate(90 348.299 18.3459)" fill="#313131"/>
<rect x="326.868" y="18.3459" width="9.60687" height="2.21697" rx="1.10848" transform="rotate(90 326.868 18.3459)" fill="#313131"/>
<rect x="324.651" y="25.7358" width="8.49839" height="2.21697" rx="1.10848" fill="#313131"/>
<rect x="320.217" y="8" width="11.4543" height="2.21697" rx="1.10848" transform="rotate(90 320.217 8)" fill="#313131"/>
<rect x="333.149" y="40.1461" width="6.65091" height="2.21697" rx="1.10848" fill="#313131"/>
</svg>
