<?xml version="1.0" standalone="no"?>
<svg xmlns:xlink="http://www.w3.org/1999/xlink" id="wave" style="transform:rotate(180deg); transition: 0.3s" viewBox="0 0 1440 490" version="1.1" xmlns="http://www.w3.org/2000/svg"><defs><linearGradient id="sw-gradient-0" x1="0" x2="0" y1="1" y2="0"><stop stop-color="rgba(38, 149, 226, 1)" offset="0%"/><stop stop-color="rgba(0, 248, 240, 1)" offset="100%"/></linearGradient></defs><path style="transform:translate(0, 0px); opacity:1" fill="url(#sw-gradient-0)" d="M0,0L60,40.8C120,82,240,163,360,179.7C480,196,600,147,720,130.7C840,114,960,131,1080,163.3C1200,196,1320,245,1440,228.7C1560,212,1680,131,1800,155.2C1920,180,2040,310,2160,326.7C2280,343,2400,245,2520,171.5C2640,98,2760,49,2880,24.5C3000,0,3120,0,3240,16.3C3360,33,3480,65,3600,65.3C3720,65,3840,33,3960,73.5C4080,114,4200,229,4320,228.7C4440,229,4560,114,4680,98C4800,82,4920,163,5040,196C5160,229,5280,212,5400,245C5520,278,5640,359,5760,400.2C5880,441,6000,441,6120,375.7C6240,310,6360,180,6480,114.3C6600,49,6720,49,6840,106.2C6960,163,7080,278,7200,310.3C7320,343,7440,294,7560,285.8C7680,278,7800,310,7920,310.3C8040,310,8160,278,8280,294C8400,310,8520,376,8580,408.3L8640,441L8640,490L8580,490C8520,490,8400,490,8280,490C8160,490,8040,490,7920,490C7800,490,7680,490,7560,490C7440,490,7320,490,7200,490C7080,490,6960,490,6840,490C6720,490,6600,490,6480,490C6360,490,6240,490,6120,490C6000,490,5880,490,5760,490C5640,490,5520,490,5400,490C5280,490,5160,490,5040,490C4920,490,4800,490,4680,490C4560,490,4440,490,4320,490C4200,490,4080,490,3960,490C3840,490,3720,490,3600,490C3480,490,3360,490,3240,490C3120,490,3000,490,2880,490C2760,490,2640,490,2520,490C2400,490,2280,490,2160,490C2040,490,1920,490,1800,490C1680,490,1560,490,1440,490C1320,490,1200,490,1080,490C960,490,840,490,720,490C600,490,480,490,360,490C240,490,120,490,60,490L0,490Z"/><defs><linearGradient id="sw-gradient-1" x1="0" x2="0" y1="1" y2="0"><stop stop-color="rgba(38, 149, 226, 1)" offset="0%"/><stop stop-color="rgba(0, 248, 240, 1)" offset="100%"/></linearGradient></defs><path style="transform:translate(0, 50px); opacity:0.9" fill="url(#sw-gradient-1)" d="M0,49L60,89.8C120,131,240,212,360,228.7C480,245,600,196,720,212.3C840,229,960,310,1080,343C1200,376,1320,359,1440,359.3C1560,359,1680,376,1800,392C1920,408,2040,425,2160,408.3C2280,392,2400,343,2520,318.5C2640,294,2760,294,2880,269.5C3000,245,3120,196,3240,204.2C3360,212,3480,278,3600,253.2C3720,229,3840,114,3960,57.2C4080,0,4200,0,4320,57.2C4440,114,4560,229,4680,285.8C4800,343,4920,343,5040,334.8C5160,327,5280,310,5400,302.2C5520,294,5640,294,5760,318.5C5880,343,6000,392,6120,359.3C6240,327,6360,212,6480,138.8C6600,65,6720,33,6840,65.3C6960,98,7080,196,7200,253.2C7320,310,7440,327,7560,302.2C7680,278,7800,212,7920,228.7C8040,245,8160,343,8280,318.5C8400,294,8520,147,8580,73.5L8640,0L8640,490L8580,490C8520,490,8400,490,8280,490C8160,490,8040,490,7920,490C7800,490,7680,490,7560,490C7440,490,7320,490,7200,490C7080,490,6960,490,6840,490C6720,490,6600,490,6480,490C6360,490,6240,490,6120,490C6000,490,5880,490,5760,490C5640,490,5520,490,5400,490C5280,490,5160,490,5040,490C4920,490,4800,490,4680,490C4560,490,4440,490,4320,490C4200,490,4080,490,3960,490C3840,490,3720,490,3600,490C3480,490,3360,490,3240,490C3120,490,3000,490,2880,490C2760,490,2640,490,2520,490C2400,490,2280,490,2160,490C2040,490,1920,490,1800,490C1680,490,1560,490,1440,490C1320,490,1200,490,1080,490C960,490,840,490,720,490C600,490,480,490,360,490C240,490,120,490,60,490L0,490Z"/></svg>